<?xml version="1.0" encoding="utf-8"?>
<!-- Generator: Adobe Illustrator 27.0.0, SVG Export Plug-In . SVG Version: 6.00 Build 0)  -->
<svg version="1.1" id="Layer_1" xmlns="http://www.w3.org/2000/svg" xmlns:xlink="http://www.w3.org/1999/xlink" x="0px" y="0px"
	 viewBox="0 0 188.39 191.65" style="enable-background:new 0 0 188.39 191.65;" xml:space="preserve">
<style type="text/css">
	.st0{fill:#FFFFFF;}
</style>
<g>
	<path d="M86.74,119.76c4.65,0.1,8.81,0.68,12.54,3c5.94,3.69,8.28,9.4,8.37,16.04c0.17,11.22,0.09,22.45,0.03,33.68
		c-0.05,10.94-6.95,18.43-17.92,19.03c-5.12,0.28-10.34,0.19-15.41-0.51c-8.45-1.16-14.34-8.72-14.43-18.04
		c-0.12-11.47-0.11-22.95,0-34.43c0.1-10.85,7.61-18.3,18.59-18.69c0.66-0.02,1.32,0,2.35,0c0-3.65-0.06-7.2,0.02-10.74
		c0.11-4.98,1.14-9.72,4.15-13.83c4.54-6.18,11.02-8.31,18.29-8.34c21.12-0.09,42.23-0.02,63.35-0.04
		c7.95-0.01,14.73-4.36,15.41-11.72c0.92-10.04,1.06-20.31,0.04-30.33c-0.76-7.42-6.69-11.27-14.29-12.11c0-1.81,0-3.61,0-5.41
		c9.93-0.4,19.43,7.07,20.07,16.84c0.66,10.08,0.64,20.26,0.11,30.35c-0.51,9.58-7.48,16.38-16.93,17.77
		c-2.13,0.31-4.3,0.47-6.45,0.48c-20.54,0.03-41.08,0.31-61.6-0.11c-9.01-0.18-17.11,7.68-16.33,16.48
		C86.99,112.57,86.74,116.07,86.74,119.76z M101.81,155.74c0-5.82,0-11.63,0-17.45c0-0.17,0-0.33,0-0.5
		c-0.11-7.1-4.8-11.93-11.84-12.05c-4.15-0.07-8.31-0.08-12.46,0c-6.91,0.14-11.69,4.97-11.72,11.89c-0.05,12.05-0.05,24.1,0,36.15
		c0.03,7.06,4.83,11.81,11.94,11.93c3.99,0.06,7.98,0.05,11.96,0c7.36-0.1,12.06-4.87,12.11-12.27
		C101.84,167.54,101.81,161.64,101.81,155.74z"/>
	<path d="M77.66,59.83c-17.46,0-34.91,0.04-52.37-0.02c-8.36-0.03-15.38-3.02-20.51-9.86C2,46.26,0.38,42.06,0.21,37.52
		C-0.01,32.05-0.22,26.5,0.47,21.1C2.07,8.56,11.84,0.11,24.59,0.08c35.49-0.1,70.99-0.11,106.48,0.01
		c14.1,0.05,24.47,10.65,24.5,24.77c0.01,5.39,0.25,10.9-0.78,16.13c-2.25,11.47-12.08,18.81-24.26,18.84
		C112.9,59.86,95.28,59.83,77.66,59.83z M77.82,53.95c17.71,0,35.42,0.04,53.13-0.01c10.93-0.03,18.67-7.8,18.77-18.7
		c0.03-3.66,0.05-7.32-0.01-10.98c-0.17-10.35-7.82-18.26-18.16-18.29c-35.84-0.1-71.68-0.09-107.51,0
		c-9.14,0.02-16.27,6.04-17.7,15.11c-0.7,4.39-0.41,8.95-0.42,13.43c-0.03,11.87,7.6,19.43,19.52,19.44
		C42.89,53.96,60.36,53.95,77.82,53.95z"/>
	<path class="st0" d="M101.81,155.74c0,5.9,0.03,11.8-0.01,17.7c-0.05,7.4-4.75,12.17-12.11,12.27c-3.99,0.05-7.98,0.06-11.96,0
		c-7.1-0.11-11.91-4.87-11.94-11.93c-0.06-12.05-0.05-24.1,0-36.15c0.03-6.92,4.82-11.75,11.72-11.89c4.15-0.08,8.31-0.08,12.46,0
		c7.04,0.12,11.73,4.95,11.84,12.05c0,0.17,0,0.33,0,0.5C101.81,144.1,101.81,149.92,101.81,155.74z"/>
	<path class="st0" d="M77.82,53.95c-17.46,0-34.92,0.01-52.39,0C13.51,53.94,5.88,46.37,5.91,34.51c0.01-4.48-0.27-9.04,0.42-13.43
		c1.44-9.07,8.56-15.09,17.7-15.11c35.84-0.09,71.68-0.1,107.51,0c10.34,0.03,17.99,7.94,18.16,18.29
		c0.06,3.66,0.04,7.32,0.01,10.98c-0.09,10.9-7.83,18.67-18.77,18.7C113.24,53.99,95.53,53.95,77.82,53.95z"/>
</g>
</svg>
