<?xml version="1.0" encoding="UTF-8"?>
<svg id="Layer_1" data-name="Layer 1" xmlns="http://www.w3.org/2000/svg" viewBox="0 0 191.62 191.74">
  <defs>
    <style>
      .cls-1 {
        fill: #00a651;
      }
    </style>
  </defs>
  <path class="cls-1" d="M160.94,191.43c-23.29-.7-45.44-6.2-66.35-16.37-13.99-6.8-26.77-15.51-38.44-25.84-19.69-17.43-34.25-38.52-44.28-62.7C6.04,72.48,2.66,57.73,1.02,42.59,.4,36.78,.1,30.97,0,25.14-.13,16.97,4.21,11.12,12.09,8.96,22.19,6.19,32.27,3.36,42.41,.74,48.69-.88,54.49-.03,59.03,5.16c1.27,1.46,2.14,3.18,2.88,4.94,4.7,11.2,9.38,22.41,14.02,33.64,3.24,7.84,1.48,14.39-5.17,19.76-5.12,4.13-10.16,8.35-15.33,12.41-1.48,1.16-1.53,2.05-.71,3.69,7.81,15.62,18.09,29.32,31.5,40.56,8.13,6.81,17.01,12.53,26.57,17.18,1.53,.75,2.08-.08,2.82-.99,4.25-5.23,8.55-10.43,12.75-15.7,4.96-6.2,11.86-8.11,19.18-5.09,11.23,4.64,22.36,9.5,33.66,13.96,9.9,3.91,11.77,12.23,9.65,20.25-2.52,9.48-5.2,18.91-7.76,28.38-2.65,9.78-8.76,14.19-18.89,13.52-1.08-.07-2.16-.16-3.24-.24Z"/>
</svg>