<?xml version="1.0" encoding="utf-8"?>
<!-- Generator: Adobe Illustrator 27.0.0, SVG Export Plug-In . SVG Version: 6.00 Build 0)  -->
<svg version="1.1" id="Layer_1" xmlns="http://www.w3.org/2000/svg" xmlns:xlink="http://www.w3.org/1999/xlink" x="0px" y="0px"
	 viewBox="0 0 167.53 191.52" style="enable-background:new 0 0 167.53 191.52;" xml:space="preserve">
<style type="text/css">
	.st0{fill:#FFFFFF;}
</style>
<g>
	<path class="st0" d="M0.01,95.51c0-23.53-0.02-47.07,0.01-70.6C0.03,14.24,5.67,5.6,15.48,1.81c2.95-1.14,6.3-1.71,9.48-1.72
		c39.25-0.11,78.49-0.11,117.74-0.05c12,0.02,21.15,7.22,24.09,18.84c0.54,2.15,0.72,4.44,0.72,6.66
		c0.04,46.82,0.04,93.64,0.02,140.46c0,11.2-5.62,19.99-15.6,23.77c-2.96,1.12-6.31,1.66-9.49,1.67
		c-39.08,0.11-78.16,0.09-117.24,0.06C10.39,191.49,0.02,181,0.01,166.12C-0.01,142.58,0.01,119.05,0.01,95.51z M161.65,95.76
		c0-23.53,0.01-47.06,0-70.59c-0.01-11.54-7.7-19.26-19.21-19.27c-39.08-0.02-78.15-0.01-117.23,0c-11.67,0-19.32,7.7-19.32,19.4
		c-0.01,46.9-0.01,93.79,0,140.69c0,12.08,7.54,19.63,19.58,19.63c38.83,0.01,77.65,0.01,116.48,0c12.21,0,19.7-7.52,19.7-19.77
		C161.65,142.49,161.65,119.13,161.65,95.76z"/>
	<path class="st0" d="M50.74,48.06c0,1.16,0.08,2.33-0.01,3.49c-0.47,6.12-3.88,10.09-9.96,10.9c-3.25,0.43-6.65,0.41-9.9-0.02
		c-5.63-0.75-8.99-4.2-9.66-9.78c-0.37-3.11-0.38-6.33-0.03-9.43c0.65-5.69,4.07-9.18,9.81-9.94c3.09-0.41,6.32-0.45,9.42-0.07
		c6.38,0.78,9.98,4.94,10.35,11.37c0.07,1.16,0.01,2.32,0.01,3.49C50.75,48.06,50.74,48.06,50.74,48.06z M35.74,56.9
		c0,0,0-0.01,0-0.01c1.16,0,2.33,0.05,3.49-0.01c3.23-0.18,5.44-2.28,5.63-5.51c0.13-2.32,0.14-4.66,0-6.97
		c-0.21-3.34-2.49-5.45-5.86-5.55c-2.07-0.06-4.15-0.06-6.23,0c-3.47,0.1-5.72,2.3-5.89,5.79c-0.1,1.99-0.06,3.99-0.02,5.98
		c0.08,4.07,2.29,6.22,6.4,6.28C34.08,56.91,34.91,56.9,35.74,56.9z"/>
	<path class="st0" d="M20.97,143.58c0-0.91-0.02-1.83,0-2.74c0.19-6.76,3.94-11.14,10.64-11.9c3.02-0.34,6.16-0.29,9.17,0.12
		c5.73,0.78,9.1,4.23,9.78,9.97c0.36,3.03,0.35,6.16,0.02,9.19c-0.62,5.68-4.01,9.21-9.72,10.01c-3.09,0.43-6.32,0.49-9.42,0.11
		c-6.63-0.8-10.24-5.06-10.47-11.77C20.94,145.58,20.97,144.58,20.97,143.58z M35.79,152.7c0.75,0,1.49,0,2.24,0
		c4.71-0.03,6.83-2.13,6.87-6.83c0.01-1.83,0.07-3.66-0.03-5.48c-0.19-3.48-2.45-5.65-5.93-5.75c-1.99-0.06-3.99-0.05-5.98,0
		c-3.73,0.08-5.98,2.32-6.11,6.09c-0.06,1.74-0.03,3.49-0.01,5.23c0.04,4.57,2.17,6.7,6.71,6.73C34.3,152.7,35.04,152.7,35.79,152.7
		z"/>
	<path class="st0" d="M107.92,44.92c10.14,0,20.28,0,30.43,0c0.66,0,1.34-0.06,1.99,0.04c1.72,0.27,3.32,1.23,3,2.97
		c-0.2,1.09-1.82,2.01-2.94,2.8c-0.45,0.32-1.29,0.08-1.96,0.08c-20.45,0-40.9,0-61.35,0c-0.17,0-0.33,0-0.5,0
		c-2.96-0.02-4.71-1.15-4.64-3.01c0.06-1.72,1.85-2.87,4.56-2.87C86.97,44.92,97.44,44.92,107.92,44.92z"/>
	<path class="st0" d="M107.46,98.7c-10.06,0-20.12,0-30.18,0c-0.5,0-1,0.02-1.5,0c-2.32-0.09-4.1-1.41-3.82-3.04
		c0.35-2.03,1.85-2.83,3.81-2.83c7.23,0,14.47,0,21.7,0c13.47,0,26.94,0,40.4,0c0.5,0,1-0.01,1.5,0c2.44,0.06,4.35,1.41,4.07,3.07
		c-0.37,2.2-2.03,2.82-4.07,2.81C128.75,98.7,118.1,98.7,107.46,98.7z"/>
	<path class="st0" d="M107.65,140.72c10.23,0,20.45,0,30.68,0c0.58,0,1.17-0.04,1.74,0.01c1.84,0.18,3.36,1.06,3.34,3
		c-0.02,1.82-1.48,2.66-3.23,2.84c-0.58,0.06-1.16,0.02-1.74,0.02c-20.53,0-41.07,0-61.6,0c-0.33,0-0.67,0.01-1,0
		c-2.34-0.09-4.12-1.35-3.87-2.99c0.33-2.18,1.95-2.89,4-2.89C86.54,140.73,97.1,140.72,107.65,140.72z"/>
	<path class="st0" d="M36.2,100.36c1.35-1.36,2.86-2.88,4.36-4.4C45.82,90.64,51.06,85.3,56.34,80c0.68-0.69,1.49-1.52,2.36-1.69
		c1.01-0.2,2.51-0.1,3.13,0.52c0.62,0.62,0.66,2.11,0.49,3.13c-0.13,0.79-0.91,1.54-1.54,2.18c-7.21,7.25-14.44,14.48-21.68,21.7
		c-2.54,2.53-3.93,2.51-6.51-0.05c-3.48-3.46-6.97-6.91-10.39-10.42c-1.35-1.39-1.89-3.18-0.34-4.65c1.48-1.4,3.22-0.96,4.67,0.39
		c0.55,0.51,1.03,1.09,1.57,1.6C30.74,95.22,33.39,97.71,36.2,100.36z"/>
	<path d="M35.74,56.9c-0.83,0-1.66,0.01-2.49,0c-4.11-0.06-6.32-2.21-6.4-6.28c-0.04-1.99-0.08-3.99,0.02-5.98
		c0.17-3.49,2.42-5.68,5.89-5.79c2.07-0.06,4.15-0.06,6.23,0c3.37,0.1,5.66,2.21,5.86,5.55c0.14,2.32,0.14,4.66,0,6.97
		c-0.19,3.24-2.4,5.34-5.63,5.51c-1.16,0.06-2.32,0.01-3.49,0.01C35.74,56.89,35.74,56.89,35.74,56.9z"/>
	<path d="M35.79,152.7c-0.75,0-1.49,0.01-2.24,0c-4.54-0.04-6.66-2.17-6.71-6.73c-0.02-1.74-0.05-3.49,0.01-5.23
		c0.12-3.77,2.37-6.01,6.11-6.09c1.99-0.04,3.99-0.05,5.98,0c3.48,0.1,5.74,2.27,5.93,5.75c0.1,1.82,0.05,3.65,0.03,5.48
		c-0.04,4.7-2.16,6.8-6.87,6.83C37.28,152.7,36.54,152.7,35.79,152.7z"/>
</g>
</svg>
