<?xml version="1.0" encoding="utf-8"?>
<!-- Generator: Adobe Illustrator 27.0.0, SVG Export Plug-In . SVG Version: 6.00 Build 0)  -->
<svg version="1.1" id="Layer_1" xmlns="http://www.w3.org/2000/svg" xmlns:xlink="http://www.w3.org/1999/xlink" x="0px" y="0px"
	 viewBox="0 0 168.54 144.64" style="enable-background:new 0 0 168.54 144.64;" xml:space="preserve">
<style type="text/css">
	.st0{fill:#FFFFFF;stroke:#000000;stroke-miterlimit:10;}
</style>
<g>
	<path class="st0" d="M84.2,24.35c-23.28,0-46.57,0.02-69.85-0.03c-2.05,0-4.19-0.2-6.12-0.82c-5.13-1.63-8.3-6.84-7.64-12.04
		c0.86-6.7,4.64-10.29,11.48-10.9c0.74-0.07,1.5-0.04,2.24-0.04c46.65,0,93.3,0,139.95,0c4.09,0,8,0.58,10.8,4.01
		c3.32,4.07,3.75,8.61,1.64,13.31c-2.18,4.85-6.45,6.47-11.41,6.51c-9.23,0.07-18.46,0.02-27.69,0.02
		C113.14,24.35,98.67,24.35,84.2,24.35z"/>
	<path class="st0" d="M84.24,60.39c23.45,0,46.9,0,70.35,0c5.22,0,9.72,1.43,12.15,6.56c3.87,8.17-1.28,16.58-10.52,17.26
		c-0.74,0.05-1.5,0.03-2.24,0.03c-46.48,0-92.97,0.01-139.45-0.03c-2.05,0-4.19-0.16-6.14-0.74c-5.02-1.5-8.26-6.54-7.85-11.7
		c0.49-6.09,3.98-10.1,9.65-10.99c1.47-0.23,2.97-0.36,4.46-0.36C37.84,60.38,61.04,60.39,84.24,60.39z"/>
	<path class="st0" d="M84.23,144.12c-23.28,0-46.57,0.02-69.85-0.03c-2.05,0-4.19-0.2-6.13-0.81c-5.11-1.61-8.32-6.85-7.67-12.03
		c0.84-6.7,4.61-10.31,11.46-10.93c0.74-0.07,1.5-0.05,2.24-0.05c46.65,0,93.3,0,139.95,0c4.09,0,8.01,0.57,10.81,3.98
		c3.32,4.05,3.78,8.6,1.67,13.3c-2.18,4.85-6.43,6.49-11.39,6.54c-7.9,0.08-15.8,0.02-23.7,0.02
		C115.83,144.12,100.03,144.12,84.23,144.12z"/>
</g>
</svg>
