<?xml version="1.0" encoding="UTF-8"?>
<svg id="Layer_1" data-name="Layer 1" xmlns="http://www.w3.org/2000/svg" viewBox="0 0 191.74 191.66">
  <defs>
    <style>
      .cls-1 {
        fill: #21409a;
      }
    </style>
  </defs>
  <path class="cls-1" d="M95.83,0c23.41,0,46.83-.03,70.24,.02,5.68,.01,11.11,1.27,15.72,4.77,6.51,4.95,9.87,11.63,9.88,19.8,.06,35.58,.12,71.16-.03,106.74-.06,14.27-10.74,24.51-25.09,24.56-15.91,.06-31.83,.05-47.74-.03-2.2-.01-3.93,.54-5.69,1.89-13.9,10.61-27.87,21.14-41.82,31.68-.66,.5-1.33,1.01-2.05,1.42-3.72,2.13-9.37-.03-9.26-5.23,.18-8.83,.04-17.66,.04-26.5q0-3.23-3.21-3.23c-10.5,0-21,.08-31.5-.03-8.34-.09-15.43-2.98-20.57-9.87C1.56,141.71,.03,136.9,.03,131.56c0-35.75-.11-71.49,.06-107.23C.16,10.06,10.83,.04,25.34,.02c23.5-.03,46.99,0,70.49,0Z"/>
</svg>