<?xml version="1.0" encoding="utf-8"?>
<!-- Generator: Adobe Illustrator 27.0.0, SVG Export Plug-In . SVG Version: 6.00 Build 0)  -->
<svg version="1.1" id="Layer_1" xmlns="http://www.w3.org/2000/svg" xmlns:xlink="http://www.w3.org/1999/xlink" x="0px" y="0px"
	 viewBox="0 0 190.73 190.76" style="enable-background:new 0 0 190.73 190.76;" xml:space="preserve">
<g>
	<path d="M190.73,34.76c0.07,5.53-2.44,9.85-6.22,13.64c-25.95,26.01-51.88,52.04-77.81,78.06c-12.97,13.01-25.98,25.97-38.88,39.06
		c-6.09,6.18-13.17,10.47-21.53,12.85c-13.95,3.98-27.82,8.19-41.76,12.19c-1.19,0.34-3.08,0.26-3.82-0.46
		c-0.74-0.72-0.87-2.63-0.53-3.8c4.59-15.75,9.19-31.5,14.07-47.16c1.85-5.93,5.45-11.01,9.86-15.39
		C63.65,84.42,103.22,45.11,142.8,5.81c7.77-7.72,18.66-7.77,26.45-0.06c6.02,5.96,11.98,11.99,17.75,18.19
		C189.73,26.89,190.73,30.73,190.73,34.76z M7.04,183.65c1.25-0.32,2.04-0.49,2.82-0.72c10.51-3.05,20.94-6.41,31.54-9.08
		c9.43-2.38,17.04-7.16,23.85-14.04c28.19-28.48,56.61-56.73,84.95-85.05c0.7-0.7,1.56-1.24,2.16-1.71
		c-11.66-11.66-22.99-22.99-34.38-34.38c-0.35,0.33-0.9,0.82-1.42,1.34c-29.16,29.16-58.28,58.35-87.5,87.45
		c-5.44,5.42-9.23,11.61-11.3,19C14.34,158.74,10.71,170.97,7.04,183.65z M156.69,68.23c8.22-8.22,16.55-16.35,24.66-24.7
		c5.05-5.2,4.82-12.42-0.3-17.64c-5.12-5.23-10.33-10.36-15.51-15.53c-6.09-6.07-13.76-6.04-19.76,0.07
		c-6.53,6.64-13.05,13.29-19.61,19.9c-1.27,1.28-2.67,2.42-3.88,3.5C133.97,45.51,145.25,56.78,156.69,68.23z"/>
	<path d="M72.7,26.16c-2.03,2.11-3.86,4.03-5.71,5.92c-4.48,4.57-8.97,9.13-13.48,13.67c-1.77,1.79-3.78,2.08-5.03,0.8
		c-1.31-1.34-1.1-3.28,0.7-5.06c5.78-5.74,11.59-11.45,17.42-17.14c0.65-0.63,1.51-1.04,1.84-1.26c-4.3-4.55-7.88-8.97-12.1-12.67
		c-5.57-4.89-13.65-4.09-19.38,1.46c-5.37,5.21-10.6,10.55-15.89,15.84c-2.82,2.82-5.66,5.63-8.45,8.47
		c-6.99,7.11-7,15.35,0.01,22.41c8.61,8.67,17.27,17.29,25.92,25.92c0.65,0.64,1.39,1.19,2.32,1.98c-1.63,1.5-3,2.77-4.86,4.48
		c-1.23-1.45-2.32-2.91-3.59-4.2c-7.85-7.9-15.79-15.71-23.59-23.65c-6.38-6.49-9.2-14.09-5.61-22.91c1.27-3.14,3.39-6.12,5.75-8.59
		C16.4,23.82,24.13,16.27,31.8,8.66c9.22-9.14,20.68-9.88,30.2-1.06c9.87,9.13,19.03,19.02,28.66,28.73
		c-1.18,1.3-2.44,2.68-3.83,4.2C82.11,35.72,77.52,31.05,72.7,26.16z"/>
	<path d="M100.17,154.33c1.31-1.19,2.58-2.35,4.01-3.65c0.59,0.54,1.26,1.13,1.89,1.75c8.58,8.46,17.15,16.94,25.74,25.4
		c7.58,7.47,15.58,7.46,23.13-0.06c7.83-7.8,15.68-15.58,23.44-23.46c6.91-7.02,6.86-15.21,0-22.24c-1.45-1.49-2.94-2.94-4.4-4.41
		c-1.76-1.76-3.52-3.53-5.45-5.48c-0.7,0.66-1.35,1.25-1.97,1.87c-5.55,5.62-11.09,11.25-16.63,16.87c-0.41,0.41-0.8,0.85-1.24,1.23
		c-1.36,1.18-2.96,1.49-4.28,0.24c-1.38-1.31-1.34-3.05-0.02-4.46c1.99-2.12,4.15-4.08,6.17-6.17c4.44-4.61,8.83-9.25,13.61-14.27
		c-4.42-4.01-9.19-8.34-14.3-12.97c2.19-1.83,3.55-2.98,5.28-4.43c1.55,1.67,3.3,3.66,5.17,5.53c7.27,7.31,14.62,14.53,21.84,21.89
		c6.3,6.42,9.09,13.97,5.66,22.71c-1.24,3.15-3.35,6.16-5.7,8.62c-7.52,7.87-15.29,15.5-23.04,23.15
		c-9.37,9.26-21.41,9.58-30.84,0.51c-9.29-8.93-18.26-18.18-27.36-27.3C100.63,154.98,100.46,154.7,100.17,154.33z"/>
</g>
</svg>
