<?xml version="1.0" encoding="utf-8"?>
<!-- Generator: Adobe Illustrator 27.0.0, SVG Export Plug-In . SVG Version: 6.00 Build 0)  -->
<svg version="1.1" id="Layer_1" xmlns="http://www.w3.org/2000/svg" xmlns:xlink="http://www.w3.org/1999/xlink" x="0px" y="0px"
	 viewBox="0 0 215.48 191.57" style="enable-background:new 0 0 215.48 191.57;" xml:space="preserve">
<g>
	<path d="M203.05,35.5c0.09,5.06-2.4,9.4-6.18,13.19c-22.51,22.54-44.99,45.09-67.48,67.65c-16.38,16.43-32.81,32.81-49.11,49.33
		c-6.22,6.31-13.42,10.71-21.95,13.14c-13.88,3.96-27.69,8.14-41.56,12.11c-1.2,0.34-3.19,0.32-3.82-0.41
		c-0.76-0.87-0.9-2.79-0.54-4.04c4.57-15.67,9.16-31.34,14.03-46.93c1.88-6.02,5.54-11.14,10.02-15.59
		c39.52-39.28,79.05-78.54,118.6-117.79c6.98-6.92,17.23-8.13,24.14-2.02c7.14,6.32,13.66,13.36,20.24,20.28
		C202.07,27.2,203.06,31.16,203.05,35.5z M164.37,73.36c-11.58-11.57-22.91-22.88-34.27-34.22c0.08-0.06-0.13,0.08-0.31,0.25
		c-30.06,30.04-60.13,60.09-90.18,90.15c-3.63,3.63-6.55,7.8-8.09,12.71c-2.56,8.14-4.87,16.36-7.27,24.56
		c-1.65,5.61-3.27,11.23-5.01,17.18c1.17-0.27,1.95-0.42,2.72-0.64c11.4-3.29,22.76-6.7,34.19-9.86c7.58-2.09,13.93-5.94,19.47-11.5
		c26.35-26.47,52.8-52.83,79.22-79.23C158.07,79.52,161.35,76.33,164.37,73.36z M134.35,33.4c12.24,12.23,23.56,23.54,34.91,34.89
		c7.98-7.97,16.32-16.1,24.43-24.45c5.05-5.2,4.8-12.41-0.34-17.64c-5.36-5.46-10.78-10.86-16.24-16.23
		c-5.06-4.98-12.8-5.12-17.99-0.23C150.71,17.66,142.39,25.7,134.35,33.4z"/>
	<path d="M119.23,154.25c0.67,6.79,2.66,12.8,6.73,17.98c6.72,8.55,15.54,13.16,26.43,13.26c16.89,0.15,33.78,0.05,50.66,0.03
		c4.98-0.01,7.79-3.87,6.13-8.32c-0.92-2.48-2.8-3.76-5.35-3.73c-12.96,0.18-18.42-9.66-18.15-19.41
		c0.53-18.8-13.11-31.02-25.58-33.67c-1.84-0.39-3.72-0.63-5.96-1c1.53-1.66,2.78-3.2,4.23-4.52c0.47-0.43,1.51-0.57,2.19-0.41
		c16.04,3.87,26.16,13.77,29.9,29.87c0.8,3.44,1.08,7.09,1,10.62c-0.17,7.18,5.65,13.11,12.04,12.73c5.9-0.34,9.98,3.08,11.44,8.17
		c1.49,5.2-0.07,10.76-4.34,13.23c-2.26,1.31-5.14,2.18-7.74,2.2c-17.38,0.19-34.78,0.48-52.16-0.01
		c-16.66-0.47-30.37-12.78-34.95-26.6c-0.03-0.08-0.03-0.16-0.06-0.24C113.78,158.48,113.82,158.36,119.23,154.25z"/>
	<path d="M56.51,77.13c-1.79,1.6-3.14,2.81-4.58,4.09c-0.7-0.66-1.31-1.21-1.9-1.79C35.64,65.15,21.22,50.87,6.85,36.56
		c-8.32-8.28-9.12-19.87-2.09-29.14c5.21-6.87,16.53-9.54,24.61-5.57c2.5,1.23,4.99,2.78,6.95,4.73
		c14.74,14.66,29.35,29.44,44,44.19c0.29,0.29,0.55,0.6,0.99,1.09c-1.27,1.43-2.51,2.82-4.25,4.76c-0.69-0.98-1.17-1.91-1.87-2.61
		C60.97,39.78,46.73,25.56,32.51,11.33c-3.48-3.48-7.37-5.95-12.54-5.54C13.83,6.28,9.54,9.62,7.06,15
		C4.68,20.15,5.44,25.22,9,29.74c0.87,1.11,1.84,2.15,2.83,3.14C25.94,47,40.05,61.11,54.17,75.2
		C54.82,75.85,55.58,76.37,56.51,77.13z"/>
</g>
</svg>
